<?xml version="1.0" encoding="UTF-8"?>
<svg width="5px" height="8px" viewBox="0 0 5 8" version="1.1" xmlns="http://www.w3.org/2000/svg" xmlns:xlink="http://www.w3.org/1999/xlink">
    <title>路径</title>
    <g id="页面-1" stroke="none" stroke-width="1" fill="none" fill-rule="evenodd">
        <g id="TAB超出六个" transform="translate(-686.000000, -140.000000)" fill="#333333" fill-rule="nonzero">
            <g id="编组-36备份-2" transform="translate(37.000000, 49.000000)">
                <g id="Tabs/_Resource/Tab/default" transform="translate(124.000000, 74.000000)">
                    <g id="编组-3" transform="translate(527.500000, 21.000000) scale(-1, 1) translate(-527.500000, -21.000000) translate(525.000000, 17.000000)">
                        <path d="M-1.33263245,2.14644661 C-1.1342709,1.97288026 -0.8263573,1.95359511 -0.603650854,2.08859116 L-0.524510411,2.14644661 L2.5,4.793 L5.52451041,2.14644661 C5.72287196,1.97288026 6.03078556,1.95359511 6.253492,2.08859116 L6.33263245,2.14644661 C6.53099399,2.32001296 6.55303416,2.58943736 6.39875296,2.7843055 L6.33263245,2.85355339 L2.90406102,5.85355339 C2.70569947,6.02711974 2.39778587,6.04640489 2.17507943,5.91140884 L2.09593898,5.85355339 L-1.33263245,2.85355339 C-1.55578918,2.65829124 -1.55578918,2.34170876 -1.33263245,2.14644661 Z" id="路径" transform="translate(2.500000, 4.000000) scale(-1, 1) rotate(-90.000000) translate(-2.500000, -4.000000) "></path>
                    </g>
                </g>
            </g>
        </g>
    </g>
</svg>