<?xml version="1.0" encoding="UTF-8"?>
<svg width="4px" height="8px" viewBox="0 0 4 8" version="1.1" xmlns="http://www.w3.org/2000/svg" xmlns:xlink="http://www.w3.org/1999/xlink">
    <title>路径</title>
    <g id="页面-1" stroke="none" stroke-width="1" fill="none" fill-rule="evenodd">
        <g id="TAB超出六个" transform="translate(-62.000000, -720.000000)" fill="#333333" fill-rule="nonzero">
            <g id="编组-36备份-3" transform="translate(37.000000, 630.000000)">
                <g id="编组-3" transform="translate(25.000000, 90.000000)">
                    <path d="M-1.83263245,2.14644661 C-1.6342709,1.97288026 -1.3263573,1.95359511 -1.10365085,2.08859116 L-1.02451041,2.14644661 L2,4.793 L5.02451041,2.14644661 C5.22287196,1.97288026 5.53078556,1.95359511 5.753492,2.08859116 L5.83263245,2.14644661 C6.03099399,2.32001296 6.05303416,2.58943736 5.89875296,2.7843055 L5.83263245,2.85355339 L2.40406102,5.85355339 C2.20569947,6.02711974 1.89778587,6.04640489 1.67507943,5.91140884 L1.59593898,5.85355339 L-1.83263245,2.85355339 C-2.05578918,2.65829124 -2.05578918,2.34170876 -1.83263245,2.14644661 Z" id="路径" transform="translate(2.000000, 4.000000) scale(-1, 1) rotate(-90.000000) translate(-2.000000, -4.000000) "></path>
                </g>
            </g>
        </g>
    </g>
</svg>