<?xml version="1.0" encoding="UTF-8"?>
<svg width="24px" height="24px" viewBox="0 0 24 24" version="1.1" xmlns="http://www.w3.org/2000/svg" xmlns:xlink="http://www.w3.org/1999/xlink">
    <title>close-empty</title>
    <defs>
        <path d="M13.3054688,12.0005859 L19.2773438,6.03339844 C19.6382813,5.67246094 19.6382813,5.08886719 19.2773438,4.73027344 C18.9164063,4.36933594 18.3328125,4.36933594 17.9742188,4.73027344 L12,10.6951172 L6.02578125,4.72792969 C5.66484375,4.36699219 5.08125,4.36699219 4.72265625,4.72792969 C4.36171875,5.08886719 4.36171875,5.67246094 4.72265625,6.03105469 L10.6945313,11.9982422 L4.72265625,17.9677734 C4.36171875,18.3287109 4.36171875,18.9123047 4.72265625,19.2708984 C4.903125,19.4513672 5.13984375,19.5404297 5.37421875,19.5404297 C5.6109375,19.5404297 5.8453125,19.4513672 6.02578125,19.2708984 L12,13.3037109 L17.9742188,19.2732422 C18.1546875,19.4537109 18.3890625,19.5427734 18.6257813,19.5427734 C18.8625,19.5427734 19.096875,19.4537109 19.2773438,19.2732422 C19.6382813,18.9123047 19.6382813,18.3287109 19.2773438,17.9701172 L13.3054688,12.0005859 Z" id="path-1"></path>
    </defs>
    <g id="close-empty" stroke="none" stroke-width="1" fill="none" fill-rule="evenodd">
        <mask id="mask-2" fill="white">
            <use xlink:href="#path-1"></use>
        </mask>
        <use id="Shape" fill="#000000" fill-rule="nonzero" xlink:href="#path-1"></use>
        <g id="编组" mask="url(#mask-2)">
            <g transform="translate(-0.028320, -0.009766)">
                <rect id="Rectangle-Copy-9" fill="#212121" x="0" y="0" width="24" height="24"></rect>
            </g>
        </g>
    </g>
</svg>