<?xml version="1.0" encoding="UTF-8"?><svg width="18px" height="17px" viewBox="0 0 18 17" version="1.1" xmlns="http://www.w3.org/2000/svg" xmlns:xlink="http://www.w3.org/1999/xlink"><title>形状@4x</title><g id="页面-1" stroke="none" stroke-width="1" fill="none" fill-rule="evenodd"><g id="B4-填写助手多量展示" transform="translate(-46.000000, -122.000000)" fill="#3C6EF0"><g id="编组-5" transform="translate(22.000000, 23.000000)"><g id="编组-22" transform="translate(12.000000, 88.000000)"><g id="jichushijuetubiaodongdong40px1" transform="translate(12.000000, 11.000000)"><path d="M9,0 C13.9522852,0 18,3.59770305 18,8.08207967 C18,10.6221417 16.6891992,12.9544749 14.5153125,14.4690843 L14.3676562,14.5707501 L14.3077148,14.6122607 L14.3077148,16.076389 C14.3077148,16.5382825 13.9661719,16.921552 13.5230273,16.9861045 L13.4537695,16.9954268 L13.3846875,17 L13.3293164,16.9954268 L13.2737695,16.9906777 L12.941543,16.9445939 C12.1568555,16.8244594 11.3261133,16.6074082 10.4493164,16.3025867 L10.1583984,16.1963476 L9.95537109,16.1178996 L9.79382813,16.1317951 C9.53068359,16.1502638 9.26771484,16.1641593 9,16.1639834 C4.04771484,16.1639834 0,12.5662804 0,8.08207967 C0,3.59787894 4.04771484,0 9,0 L9,0 Z M9,1.3855044 C4.77685547,1.3855044 1.38462891,4.40117951 1.38462891,8.08207967 C1.38462891,11.7629798 4.77685547,14.7786549 9,14.7786549 C9.15222656,14.7786549 9.30462891,14.7740817 9.45685547,14.7647594 L9.68308594,14.7508639 L9.92777344,14.727822 C10.0430859,14.7139265 10.1585742,14.727822 10.2693164,14.7600103 L10.3522852,14.7832281 L10.4953711,14.8432074 L10.9107422,14.9957062 C11.5245703,15.2127574 12.1060547,15.3744025 12.6599414,15.4897879 L12.8953125,15.5360476 L12.9230859,15.5360476 L12.9230859,14.3582721 C12.9230859,14.090388 13.0383984,13.8363994 13.2368555,13.6608588 L13.2969727,13.6102018 L13.3614844,13.5685153 L13.5599414,13.4438076 L13.7399414,13.3190998 C15.5445117,12.05373 16.6153711,10.1417796 16.6153711,8.08207967 C16.6153711,4.40135541 13.2231445,1.3855044 9,1.3855044 Z M14.8431445,8.4190895 C14.93823,8.49675868 14.9984855,8.60912422 15.0105912,8.73134719 C15.022697,8.85357016 14.9856559,8.97558474 14.9076562,9.07041904 C13.5230273,10.7561718 11.3445703,11.767553 8.98154297,11.7628206 C6.65085937,11.7628206 4.49542969,10.7790378 3.11080078,9.13039834 C3.03179721,9.03672508 2.99324286,8.91547098 3.00362837,8.79333932 C3.01401388,8.67120765 3.07248752,8.5582148 3.16617187,8.4792447 C3.2588753,8.4000858 3.37940709,8.36138815 3.50083146,8.3717997 C3.62225583,8.38221125 3.73445084,8.44086409 3.81234375,8.5346508 C5.02611328,9.9755613 6.91857422,10.8437662 8.98154297,10.839193 C11.0677148,10.839193 12.9830273,9.9525194 14.1922266,8.4792447 C14.2697337,8.38362635 14.3825082,8.32333282 14.5050261,8.31201021 C14.627544,8.30068761 14.7494468,8.33929321 14.8431445,8.4190895 L14.8431445,8.4190895 Z M8.76462891,6.46562856 L9.23537109,6.46562856 C9.27228516,6.46562856 9.31376953,6.46562856 9.35068359,6.47020176 L9.57691406,6.47952406 C9.61382813,6.47952406 9.65074219,6.48409726 9.68765625,6.48409726 L9.9,6.50256596 C10.7261719,6.57644077 11.3076563,6.77502328 11.3076563,7.15829281 C11.3076563,7.66627005 10.2738867,8.08190378 9,8.08207972 C7.72611328,8.08225556 6.69234375,7.66644594 6.69234375,7.15829281 C6.69234375,6.79349198 7.22777344,6.59490947 7.99839844,6.51188826 L8.20617188,6.49341956 C8.24308594,6.48884635 8.27542969,6.48884635 8.31234375,6.48409726 L8.53382813,6.47477496 C8.60765625,6.47020176 8.68605469,6.47020176 8.76462891,6.46562856 L8.76462891,6.46562856 Z M5.21542969,4.96473875 C5.54765625,5.15417486 5.65857422,5.57895499 5.46925781,5.91139162 L5.00765625,6.71047077 C4.81336998,7.03524196 4.39464835,7.14401931 4.06701318,6.95483517 C3.73937801,6.76565103 3.62397899,6.34846004 3.80777344,6.01763063 L4.26919922,5.21872737 C4.45851562,4.88629074 4.88302734,4.77530264 5.21542969,4.96473875 L5.21542969,4.96473875 Z M12.8308008,4.96473875 C13.1445703,4.78462494 13.5369141,4.87239524 13.7399414,5.16332126 L13.7768555,5.21872737 L14.238457,6.01763063 C14.4277734,6.35006725 14.3168555,6.77045008 13.9846289,6.96445939 C13.6708594,7.1445732 13.2785156,7.0568029 13.0753125,6.76587688 L13.0383984,6.71047077 L12.5769727,5.91139162 C12.3876562,5.57895499 12.4985742,5.15857217 12.8308008,4.96473875 Z" id="形状"/></g></g></g></g></g></svg>