<?xml version="1.0" encoding="UTF-8"?>
<svg width="14px" height="14px" viewBox="0 0 14 14" version="1.1" xmlns="http://www.w3.org/2000/svg" xmlns:xlink="http://www.w3.org/1999/xlink">
    <title> upload1-empty</title>
    <g id="页面-1" stroke="none" stroke-width="1" fill="none" fill-rule="evenodd">
        <g id="A-5信息提示" transform="translate(-321.000000, -432.000000)" fill="#E1251B">
            <g id="-upload1-empty" transform="translate(321.000000, 432.000000)">
                <path d="M13.4476667,12.8643333 L0.552333333,12.8643333 C0.247288057,12.8643333 -3.73572722e-17,13.1116214 0,13.4166667 C3.73572722e-17,13.7217119 0.247288057,13.969 0.552333333,13.969 L13.4476667,13.969 C13.7527119,13.969 14,13.7217119 14,13.4166667 C14,13.1116214 13.7527119,12.8643333 13.4476667,12.8643333 Z" id="Fill-1"></path>
                <path d="M7.47534116,0.157229287 C7.35764382,0.042477267 7.2009308,-0.00887584683 7.04746909,0.00190196718 C7.03446386,0.000633989059 7.02080837,0 7.00780314,0 C6.9915466,0 6.97594032,0.00126797812 6.96033405,0.00253595624 C6.80492155,-0.010777814 6.64430696,0.0405752998 6.52530911,0.157229287 L1.32711869,5.22470384 C1.11318266,5.43392023 1.11318266,5.77247038 1.32711869,5.98105278 C1.54170499,6.19026917 1.88894463,6.19026917 2.10353092,5.98105278 L6.45898243,1.73459407 L6.45898243,11.1315799 C6.45898243,11.4270188 6.70478128,11.6666667 7.00780314,11.6666667 C7.310825,11.6666667 7.55662384,11.4270188 7.55662384,11.1315799 L7.55662384,1.74917581 L11.8971193,5.98105278 C12.1110554,6.19026917 12.4589453,6.19026917 12.6728813,5.98105278 C12.8868173,5.77247038 12.8868173,5.43392023 12.6728813,5.22470384 L7.47534116,0.157229287 Z" id="Fill-4" transform="translate(7.000000, 5.833333) scale(1, -1) translate(-7.000000, -5.833333) "></path>
            </g>
        </g>
    </g>
</svg>