<?xml version="1.0" encoding="UTF-8"?><svg width="15px" height="15px" viewBox="0 0 15 15" version="1.1" xmlns="http://www.w3.org/2000/svg" xmlns:xlink="http://www.w3.org/1999/xlink"><title>形状@4x</title><g id="页面-1" stroke="none" stroke-width="1" fill="none" fill-rule="evenodd"><g id="A5-其他切图补充" transform="translate(-1227.000000, -193.000000)" fill="#999999" fill-rule="nonzero" stroke="#999999" stroke-width="0.2"><path d="M1240.59373,206.08754 C1240.73364,206.08754 1240.8602,206.144165 1240.95178,206.235741 C1241.04337,206.327316 1241.1,206.45386 1241.1,206.59377 C1241.1,206.733674 1241.04337,206.860219 1240.95178,206.951797 C1240.8602,207.043374 1240.73364,207.1 1240.59373,207.1 L1240.59373,207.1 L1228.40625,207.1 C1228.26635,207.1 1228.1398,207.043372 1228.04822,206.951796 C1227.95663,206.860216 1227.9,206.733667 1227.9,206.59377 L1227.9,206.59377 Z M1236.86514,193.967723 L1236.92886,193.96848 L1239.73067,196.579368 L1232.21277,204.981393 L1228.35085,205.796134 L1228.61125,201.887324 L1236.25936,194.094411 C1236.49227,194.021834 1236.66315,193.984798 1236.79241,193.972338 L1236.86514,193.967723 Z M1229.50615,202.798447 L1229.2492,204.602336 L1230.99564,204.287854 L1229.50615,202.798447 Z M1236.74947,195.03478 L1229.9624,201.823006 L1231.94984,203.811087 L1238.73767,197.02288 L1236.74947,195.03478 Z" id="形状"/></g></g></svg>