<?xml version="1.0" encoding="UTF-8"?><svg width="15px" height="15px" viewBox="0 0 15 15" version="1.1" xmlns="http://www.w3.org/2000/svg" xmlns:xlink="http://www.w3.org/1999/xlink"><title>形状@4x</title><g id="页面-1" stroke="none" stroke-width="1" fill="none" fill-rule="evenodd"><g id="A5-其他切图补充" transform="translate(-1331.000000, -193.000000)" fill="#E9F6FC" fill-rule="nonzero" stroke="#E5F6FD" stroke-width="0.2"><path d="M1344.59373,206.08754 C1344.73364,206.08754 1344.8602,206.144165 1344.95178,206.235741 C1345.04337,206.327316 1345.1,206.45386 1345.1,206.59377 C1345.1,206.733674 1345.04337,206.860219 1344.95178,206.951797 C1344.8602,207.043374 1344.73364,207.1 1344.59373,207.1 L1344.59373,207.1 L1332.40625,207.1 C1332.26635,207.1 1332.1398,207.043372 1332.04822,206.951796 C1331.95663,206.860216 1331.9,206.733667 1331.9,206.59377 L1331.9,206.59377 Z M1340.86514,193.967723 L1340.92886,193.96848 L1343.73067,196.579368 L1336.21277,204.981393 L1332.35085,205.796134 L1332.61125,201.887324 L1340.25936,194.094411 C1340.49227,194.021834 1340.66315,193.984798 1340.79241,193.972338 L1340.86514,193.967723 Z M1333.50615,202.798447 L1333.2492,204.602336 L1334.99564,204.287854 L1333.50615,202.798447 Z M1340.74947,195.03478 L1333.9624,201.823006 L1335.94984,203.811087 L1342.73767,197.02288 L1340.74947,195.03478 Z" id="形状"/></g></g></svg>