<?xml version="1.0" encoding="UTF-8"?><svg width="15px" height="15px" viewBox="0 0 15 15" version="1.1" xmlns="http://www.w3.org/2000/svg" xmlns:xlink="http://www.w3.org/1999/xlink"><title>形状@4x</title><g id="页面-1" stroke="none" stroke-width="1" fill="none" fill-rule="evenodd"><g id="B4-填写助手多量展示" transform="translate(-48.000000, -47.000000)" fill="#3C6EF0" fill-rule="nonzero"><g id="编组-5" transform="translate(22.000000, 23.000000)"><g id="编组-19" transform="translate(12.000000, 12.000000)"><path d="M23.3609265,17.7798513 C23.2460347,17.6650001 23.1235705,17.5614691 22.9973777,17.4654713 L22.9971494,17.4656805 C22.867266,17.3407653 22.6909039,17.2638296 22.4964705,17.2638296 C22.0974023,17.2638296 21.7739223,17.5873231 21.7739223,17.9863622 C21.7739223,18.162929 21.8373515,18.3246563 21.9425786,18.4501621 L21.9425596,18.4501621 C21.9425786,18.4501812 21.9426167,18.4502192 21.9426547,18.4502382 C21.9932041,18.5105271 22.0533418,18.5625021 22.1208615,18.6036522 C22.1889899,18.6598316 22.2558627,18.7151552 22.3183979,18.7776887 L22.3779651,18.8372735 C23.126826,19.5851851 22.9032631,20.8737602 22.1544022,21.6226162 L18.9588491,24.8171339 C18.2100068,25.5650455 16.992558,25.5650455 16.2436859,24.8171339 L16.1836432,24.7570544 C15.4347452,24.0082282 15.4347452,22.7899131 16.1836432,22.0428977 L17.5954102,20.6316369 C17.7765469,20.4878685 17.8928266,20.2659654 17.8928266,20.016783 C17.8928266,19.583365 17.541474,19.2320199 17.1080466,19.2320199 C16.9444891,19.2320199 16.7926707,19.2820925 16.666952,19.367684 C16.6665525,19.366847 16.666134,19.3660479 16.6657154,19.3651918 L16.6506667,19.37927 C16.5950947,19.4192215 16.5448498,19.4660791 16.5014539,19.5188911 L15.0343247,20.8917033 C13.6552251,22.2717251 13.6552251,24.5287674 15.0343247,25.9068632 L15.0938918,25.96641 C16.4729914,27.34453 18.7291005,27.34453 20.1082112,25.96641 L23.3027975,22.7709256 C24.6799952,21.39193 24.7967712,19.216574 23.4195918,17.838441 L23.3609188,17.7798263 L23.3609265,17.7798513 Z M27.9658017,13.0938683 L27.9062346,13.0343025 C26.5271536,11.6552325 24.2710446,11.6552325 22.8919338,13.0343025 L19.6973475,16.2297684 C18.3182479,17.6088383 18.2422992,19.6002896 19.6213998,20.9802631 L19.6800158,21.0379835 C19.7426459,21.1005933 19.8076543,21.1596265 19.8740142,21.2162436 C19.9220523,21.2698928 19.9784802,21.3158182 20.0412057,21.352136 C20.0416813,21.3525165 20.0421759,21.3529161 20.0426515,21.3532966 L20.0428608,21.3531063 C20.1428369,21.4105985 20.2586802,21.4436632 20.3823036,21.4436632 C20.7590357,21.4436632 21.0644242,21.1382423 21.0644242,20.7615573 C21.0644242,20.6552291 21.0400723,20.5545901 20.9966572,20.4648687 L20.9966572,20.4648687 C20.9064789,20.2623913 20.7376698,20.1391312 20.6209142,20.0223576 L20.5622793,19.9646753 C19.8134369,19.215849 20.0978038,18.1279312 20.8466461,17.3791143 L24.0431288,14.1845594 C24.790125,13.435696 26.0079884,13.435696 26.7568604,14.1845594 L26.8164657,14.2431741 C27.5653266,14.9920561 27.5653266,16.2108545 26.8164657,16.9587623 L25.4093224,18.3668272 C25.2178934,18.5086553 25.093755,18.7361501 25.093755,18.9926593 C25.093755,19.4225562 25.4422724,19.7710865 25.872199,19.7710865 C26.0218302,19.7710865 26.1615503,19.728776 26.2801892,19.6556075 C26.2810834,19.6571294 26.2819205,19.6585372 26.2828147,19.6600782 L26.3046363,19.6399313 C26.3718704,19.5949192 26.4315898,19.5396528 26.4817967,19.4764722 L27.9647921,18.1080941 C29.3449012,16.7290427 29.3449012,14.4729449 27.9658005,13.0938824 L27.9658017,13.0938683 Z" id="形状"/></g></g></g></g></svg>