<?xml version="1.0" encoding="UTF-8"?>
<svg width="16px" height="16px" viewBox="0 0 16 16" version="1.1" xmlns="http://www.w3.org/2000/svg" xmlns:xlink="http://www.w3.org/1999/xlink">
    <title>loading-solid备份 5</title>
    <g id="页面-1" stroke="none" stroke-width="1" fill="none" fill-rule="evenodd">
        <g id="A6-业务条件" transform="translate(-880.000000, -781.000000)">
            <g id="loading-solid备份-5" transform="translate(888.000000, 789.000000) scale(1, -1) translate(-888.000000, -789.000000) translate(880.000000, 781.000000)">
                <g id="black9" fill="#E1251B">
                    <path d="M8.66754312,12.619282 L8.66748888,15.7174045 L7.33251112,15.7174045 L7.33245688,12.619282 C7.55047133,12.6505088 7.77334872,12.6666667 8,12.6666667 C8.22665128,12.6666667 8.44952867,12.6505088 8.66754312,12.619282 Z M6.28208957,12.3402989 L4.74174514,15.0084796 L3.63323262,14.3684796 L5.16809601,11.7094972 C5.50607557,11.9679097 5.88040814,12.1811783 6.28208957,12.3402989 Z M10.831904,11.7094972 L12.3667674,14.3684796 L11.2582549,15.0084796 L9.71791043,12.3402989 C10.1195919,12.1811783 10.4939244,11.9679097 10.831904,11.7094972 Z M4.3246495,10.876018 L1.67255428,12.4078013 L1.03255428,11.2992888 L3.68062918,9.76982326 C3.84449505,10.1693268 4.06217444,10.5410644 4.3246495,10.876018 Z M12.3193708,9.76982326 L14.9674457,11.2992888 L14.3274457,12.4078013 L11.6753505,10.876018 C11.9378256,10.5410644 12.155505,10.1693268 12.3193708,9.76982326 Z M3.33333333,8 C3.33333333,8.21721016 3.34817317,8.43095428 3.3768943,8.64027382 L0.32,8.64 L0.32,7.36 L3.3768943,7.35972618 C3.34817317,7.56904572 3.33333333,7.78278984 3.33333333,8 Z M15.68,7.36 L15.68,8.64 L12.6231057,8.64027382 C12.6518268,8.43095428 12.6666667,8.21721016 12.6666667,8 C12.6666667,7.78278984 12.6518268,7.56904572 12.6231057,7.35972618 L15.68,7.36 Z M1.67255428,3.59219871 L4.3246495,5.12398195 C4.06201181,5.45914316 3.84422533,5.83113383 3.68032466,6.23091933 L1.03255428,4.70071123 L1.67255428,3.59219871 Z M14.3274457,3.59219871 L14.9674457,4.70071123 L12.3196753,6.23091933 C12.1557747,5.83113383 11.9379882,5.45914316 11.6753505,5.12398195 L14.3274457,3.59219871 Z M4.74174514,0.991520369 L6.28208957,3.65970113 C5.88040814,3.81882166 5.50607557,4.03209026 5.16809601,4.2905028 L3.63323262,1.63152037 L4.74174514,0.991520369 Z M11.2582549,0.991520369 L12.3667674,1.63152037 L10.831904,4.2905028 C10.4939244,4.03209026 10.1195919,3.81882166 9.71791043,3.65970113 L11.2582549,0.991520369 Z M8.66748888,0.28259547 L8.66754312,3.38071802 C8.44952867,3.34949125 8.22665128,3.33333333 8,3.33333333 C7.77334872,3.33333333 7.55047133,3.34949125 7.33245688,3.38071802 L7.33251112,0.28259547 L8.66748888,0.28259547 Z" id="形状结合"></path>
                </g>
                <rect id="矩形" fill="#D8D8D8" opacity="0" x="0" y="0" width="16" height="16"></rect>
            </g>
        </g>
    </g>
</svg>