<?xml version="1.0" encoding="UTF-8"?><svg width="13px" height="16px" viewBox="0 0 13 16" version="1.1" xmlns="http://www.w3.org/2000/svg" xmlns:xlink="http://www.w3.org/1999/xlink"><title>icon22/锁-面@4x</title><defs><path d="M6.5,0 C8.63782283,0 10.3843867,1.67802937 10.4797685,3.78647367 L10.483871,3.96822244 L10.483,5.473 L10.6935484,5.47368421 C11.9142907,5.47368421 12.9135285,6.42589731 12.994679,7.63092052 L13,7.78947368 L13,13.6842105 C13,14.9098951 12.0516265,15.9131784 10.8514622,15.9946574 L10.6935484,16 L2.30645161,16 C1.08570931,16 0.0864715198,15.0477869 0.00532104798,13.8427637 L0,13.6842105 L0,7.78947368 C0,6.56378911 0.948373531,5.56050582 2.14853778,5.4790268 L2.30645161,5.47368421 L2.516,5.473 L2.51612903,3.96822244 C2.51612903,1.77528658 4.30109652,0 6.5,0 Z M6.5,8.21052632 C5.80519015,8.21052632 5.24193548,8.77606137 5.24193548,9.47368421 C5.24193548,9.94072258 5.49438151,10.3485603 5.86974154,10.567141 L5.87096774,12.4210526 L5.87671007,12.5067542 C5.91836242,12.8150283 6.18154549,13.0526316 6.5,13.0526316 C6.81582266,13.0526316 7.07728367,12.8189394 7.12221193,12.5143827 L7.12903226,12.4210526 L7.13025846,10.567141 C7.50561849,10.3485603 7.75806452,9.94072258 7.75806452,9.47368421 C7.75806452,8.77606137 7.19480985,8.21052632 6.5,8.21052632 Z M6.5,1.26315789 C5.04520783,1.26315789 3.85860856,2.39342839 3.77850396,3.81485126 L3.77419355,3.96822244 L3.774,5.473 L9.225,5.473 L9.22580645,3.96822244 C9.22580645,2.47560367 8.00674903,1.26315789 6.5,1.26315789 Z" id="path-1"/></defs><g id="页面-1" stroke="none" stroke-width="1" fill="none" fill-rule="evenodd"><g id="F1-在信息确认页面选择关闭全部权限" transform="translate(-132.000000, -497.000000)"><g id="编组-9" transform="translate(132.000000, 497.000000)"><mask id="mask-2" fill="white"><use xlink:href="#path-1"/></mask><use id="蒙版" fill="#3C6EF0" fill-rule="nonzero" xlink:href="#path-1"/></g></g></g></svg>