<?xml version="1.0" encoding="UTF-8"?><svg width="13px" height="13px" viewBox="0 0 13 13" version="1.1" xmlns="http://www.w3.org/2000/svg" xmlns:xlink="http://www.w3.org/1999/xlink"><title>蒙版@4x</title><defs><path d="M6.48004353,8.50457152 C6.7416956,8.50457152 6.95381249,8.71668835 6.95381249,8.97834035 C6.95381249,9.23999235 6.7416956,9.45210918 6.48004353,9.45210918 C6.24746392,9.45210918 6.0540232,9.2845107 6.01390773,9.06350003 L6.00627457,8.97834035 C6.00627457,8.71668835 6.21839146,8.50457152 6.48004353,8.50457152 Z M6.48004353,3.54789672 C6.7416956,3.54789672 6.95381249,3.76000039 6.95381249,4.02166555 L6.95381249,7.55703386 C6.95381249,7.78961341 6.78621396,7.98305407 6.56520323,8.02316953 L6.48004353,8.03080269 C6.21839146,8.03080269 6.00627457,7.81868585 6.00627457,7.55703386 L6.00627457,4.02166555 C6.00627457,3.7890743 6.1738731,3.59564274 6.39488383,3.55552944 L6.48004353,3.54789672 Z M10.0907576,10.0907576 C9.62393939,10.5575758 9.08079545,10.923447 8.47659091,11.1795076 C7.8507197,11.4439394 7.18594697,11.5778788 6.5,11.5778788 C5.81405303,11.5778788 5.1492803,11.4439394 4.52340909,11.1795076 C3.91920455,10.923447 3.37606061,10.5575758 2.90924242,10.0907576 C2.44242424,9.62393939 2.07606061,9.08079545 1.82049242,8.47659091 C1.55606061,7.8507197 1.42162879,7.18594697 1.42162879,6.5 C1.42162879,5.81405303 1.55606061,5.1492803 1.82049242,4.52340909 C2.07606061,3.91920455 2.44242424,3.37606061 2.90924242,2.90924242 C3.37606061,2.44242424 3.91920455,2.07606061 4.52340909,1.82049242 C5.1492803,1.55606061 5.81405303,1.42162879 6.5,1.42162879 C7.18594697,1.42162879 7.8507197,1.55606061 8.47659091,1.82049242 C9.08079545,2.07606061 9.62393939,2.44242424 10.0907576,2.90924242 C10.5575758,3.37606061 10.923447,3.91920455 11.1795076,4.52340909 C11.4439394,5.1492803 11.5778788,5.81405303 11.5778788,6.5 C11.5778788,7.18594697 11.4439394,7.8507197 11.1795076,8.47659091 C10.923447,9.08079545 10.5575758,9.62393939 10.0907576,10.0907576 M6.5,0.590909091 C3.23670455,0.590909091 0.590909091,3.23670455 0.590909091,6.5 C0.590909091,9.76329545 3.23670455,12.4090909 6.5,12.4090909 C9.76329545,12.4090909 12.4090909,9.76329545 12.4090909,6.5 C12.4090909,3.23670455 9.76329545,0.590909091 6.5,0.590909091" id="path-1"/></defs><g id="页面-1" stroke="none" stroke-width="1" fill="none" fill-rule="evenodd"><g id="B1-信息确认页面" transform="translate(-48.000000, -281.000000)"><g id="con22/信息" transform="translate(48.000000, 281.000000)"><mask id="mask-2" fill="white"><use xlink:href="#path-1"/></mask><use id="蒙版" fill="#F4821F" transform="translate(6.500000, 6.500000) scale(1, -1) translate(-6.500000, -6.500000) " xlink:href="#path-1"/></g></g></g></svg>