<?xml version="1.0" encoding="UTF-8"?><svg width="13px" height="15px" viewBox="0 0 13 15" version="1.1" xmlns="http://www.w3.org/2000/svg" xmlns:xlink="http://www.w3.org/1999/xlink"><title>编目编码@4x</title><g id="页面-1" stroke="none" stroke-width="1" fill="none" fill-rule="evenodd"><g id="A5-其他切图补充" transform="translate(-1332.000000, -162.000000)" fill="#E9F6FC" fill-rule="nonzero"><g id="编目编码" transform="translate(1332.000000, 162.000000)"><path d="M9.20831721,8.65383739 L3.79165448,8.65383739 C3.49252551,8.65383739 3.24998663,8.91245404 3.24998663,9.23076111 C3.24998663,9.54906986 3.49252551,9.80766808 3.79165448,9.80766808 L9.20831721,9.80766808 C9.50771986,9.80766808 9.74998663,9.54906819 9.74998663,9.23076111 C9.74998663,8.91245404 9.50770413,8.65383739 9.20831721,8.65383739 Z M11.9166486,2.30769824 L8.12497523,2.30769824 L8.12497523,1.15384912 C8.12497523,0.516650309 7.63991321,0 7.04165369,0 L5.95831643,0 C5.36004118,0 4.87497916,0.516650309 4.87497916,1.15384912 L4.87497916,2.30769824 L1.08333727,2.30769824 C0.485077749,2.30769824 0,2.82434854 0,3.46154735 L0,13.8461509 C0,14.4833664 0.48506202,15 1.08333727,15 L11.9166785,15 C12.514938,15 13,14.4833664 13,13.8461509 L13,3.46154735 C13,2.82434854 12.5149223,2.30769824 11.9166627,2.30769824 L11.9166486,2.30769824 Z M5.95832272,1.73079127 C5.95832272,1.41217427 6.20084586,1.15386755 6.49999056,1.15386755 C6.79939321,1.15386755 7.04165841,1.41217595 7.04165841,1.73079127 L7.04165841,2.88464038 C7.04165841,3.20323895 6.79937748,3.46154735 6.49999056,3.46154735 C6.20086159,3.46154735 5.95832272,3.20323895 5.95832272,2.88464038 L5.95832272,1.73079127 L5.95832272,1.73079127 Z M11.9166816,12.6923135 C11.9166816,13.3295291 11.4315551,13.8461626 10.8332956,13.8461626 L2.16665408,13.8461626 C1.56839457,13.8461626 1.08331682,13.3295291 1.08331682,12.6923135 L1.08331682,4.61538474 C1.08331682,3.97818594 1.56837885,3.46153563 2.1666541,3.46153563 L4.87498547,3.46153563 C4.87498547,4.09875119 5.36004749,4.61538474 5.95832273,4.61538474 L7.04166,4.61538474 C7.63991951,4.61538474 8.12498153,4.09875119 8.12498153,3.46153563 L10.8333286,3.46153563 C11.4315881,3.46153563 11.9166816,3.97818594 11.9166816,4.61538474 L11.9166816,12.6923135 L11.9166816,12.6923135 Z M9.20831721,5.76923889 L3.79165448,5.76923889 C3.49252551,5.76923889 3.24998663,6.02756404 3.24998663,6.34616261 C3.24998663,6.66476118 3.49252551,6.92308633 3.79165448,6.92308633 L9.20831721,6.92308633 C9.50771986,6.92308633 9.74998663,6.66476118 9.74998663,6.34616261 C9.74998663,6.02756404 9.50770413,5.76923889 9.20831721,5.76923889 Z M6.49997012,11.5384593 L3.79162302,11.5384593 C3.49249405,11.5384593 3.24995517,11.7970592 3.24995517,12.1153831 C3.24995517,12.4336901 3.49249405,12.69229 3.79162302,12.69229 L6.49997012,12.69229 C6.79937277,12.69229 7.04163796,12.4336901 7.04163796,12.1153831 C7.04163796,11.7970576 6.79937277,11.5384593 6.49997012,11.5384593 Z" id="形状"/></g></g></g></svg>