<?xml version="1.0" encoding="UTF-8"?><svg width="13px" height="15px" viewBox="0 0 13 15" version="1.1" xmlns="http://www.w3.org/2000/svg" xmlns:xlink="http://www.w3.org/1999/xlink"><title>形状@4x</title><g id="页面-1" stroke="none" stroke-width="1" fill="none" fill-rule="evenodd"><g id="A5-其他切图补充" transform="translate(-1228.000000, -162.000000)" fill="#999999" fill-rule="nonzero"><path d="M1237.20832,170.653837 L1231.79165,170.653837 C1231.49253,170.653837 1231.24999,170.912454 1231.24999,171.230761 C1231.24999,171.54907 1231.49253,171.807668 1231.79165,171.807668 L1237.20832,171.807668 C1237.50772,171.807668 1237.74999,171.549068 1237.74999,171.230761 C1237.74999,170.912454 1237.5077,170.653837 1237.20832,170.653837 Z M1239.91665,164.307698 L1236.12498,164.307698 L1236.12498,163.153849 C1236.12498,162.51665 1235.63991,162 1235.04165,162 L1233.95832,162 C1233.36004,162 1232.87498,162.51665 1232.87498,163.153849 L1232.87498,164.307698 L1229.08334,164.307698 C1228.48508,164.307698 1228,164.824349 1228,165.461547 L1228,175.846151 C1228,176.483366 1228.48506,177 1229.08334,177 L1239.91668,177 C1240.51494,177 1241,176.483366 1241,175.846151 L1241,165.461547 C1241,164.824349 1240.51492,164.307698 1239.91666,164.307698 L1239.91665,164.307698 Z M1233.95832,163.730791 C1233.95832,163.412174 1234.20085,163.153868 1234.49999,163.153868 C1234.79939,163.153868 1235.04166,163.412176 1235.04166,163.730791 L1235.04166,164.88464 C1235.04166,165.203239 1234.79938,165.461547 1234.49999,165.461547 C1234.20086,165.461547 1233.95832,165.203239 1233.95832,164.88464 L1233.95832,163.730791 L1233.95832,163.730791 Z M1239.91668,174.692313 C1239.91668,175.329529 1239.43156,175.846163 1238.8333,175.846163 L1230.16665,175.846163 C1229.56839,175.846163 1229.08332,175.329529 1229.08332,174.692313 L1229.08332,166.615385 C1229.08332,165.978186 1229.56838,165.461536 1230.16665,165.461536 L1232.87499,165.461536 C1232.87499,166.098751 1233.36005,166.615385 1233.95832,166.615385 L1235.04166,166.615385 C1235.63992,166.615385 1236.12498,166.098751 1236.12498,165.461536 L1238.83333,165.461536 C1239.43159,165.461536 1239.91668,165.978186 1239.91668,166.615385 L1239.91668,174.692313 L1239.91668,174.692313 Z M1237.20832,167.769239 L1231.79165,167.769239 C1231.49253,167.769239 1231.24999,168.027564 1231.24999,168.346163 C1231.24999,168.664761 1231.49253,168.923086 1231.79165,168.923086 L1237.20832,168.923086 C1237.50772,168.923086 1237.74999,168.664761 1237.74999,168.346163 C1237.74999,168.027564 1237.5077,167.769239 1237.20832,167.769239 Z M1234.49997,173.538459 L1231.79162,173.538459 C1231.49249,173.538459 1231.24996,173.797059 1231.24996,174.115383 C1231.24996,174.43369 1231.49249,174.69229 1231.79162,174.69229 L1234.49997,174.69229 C1234.79937,174.69229 1235.04164,174.43369 1235.04164,174.115383 C1235.04164,173.797058 1234.79937,173.538459 1234.49997,173.538459 Z" id="形状"/></g></g></svg>