<?xml version="1.0" encoding="UTF-8"?>
<svg width="14px" height="14px" viewBox="0 0 14 14" version="1.1" xmlns="http://www.w3.org/2000/svg" xmlns:xlink="http://www.w3.org/1999/xlink">
    <title>help-solid备份</title>
    <defs>
        <path d="M7.98606667,7.871325 C7.89915,7.90515833 7.81223333,7.94074167 7.72881667,7.98274167 C7.57015,8.06265833 7.4844,8.19215833 7.47915,8.37299167 C7.47623333,8.44824167 7.47973333,8.52524167 7.4634,8.597575 C7.41556667,8.809325 7.21315,8.95399167 7.00781667,8.931825 C6.77623333,8.90674167 6.61465,8.73349167 6.6059,8.504825 C6.58198333,7.88824167 6.83923333,7.439075 7.39923333,7.17074167 C7.47506667,7.13399167 7.55206667,7.09899167 7.6314,7.07040833 C8.3909,6.796825 8.8669,6.046075 8.78231667,5.251575 C8.69773333,4.45299167 8.06773333,3.802575 7.27731667,3.699325 C6.24248333,3.56399167 5.32606667,4.34390833 5.29165,5.38574167 C5.2899,5.44290833 5.28698333,5.501825 5.27181667,5.556075 C5.21406667,5.76315833 5.00581667,5.89849167 4.7999,5.86815833 C4.57356667,5.834325 4.41373333,5.65524167 4.41661073,5.42249167 C4.42423333,4.77849167 4.62606667,4.20040833 5.05656667,3.72090833 C5.76415,2.93399167 6.65373333,2.635325 7.67865,2.89490833 C8.71406667,3.15624167 9.35573333,3.84690833 9.6054,4.887575 C9.64798333,5.06549167 9.65615,5.251575 9.67948333,5.43415833 C9.65673333,6.527325 9.00165,7.475825 7.98606667,7.871325 M7.47798333,10.695825 C7.47098333,10.937325 7.27615,11.1204917 7.03581667,11.1181583 C6.79956667,11.115825 6.61348333,10.9326583 6.60648333,10.694075 C6.60415,10.6182417 6.6059,10.5429917 6.6059,10.4671583 C6.6059,10.3889917 6.60415,10.3102417 6.60648333,10.232075 C6.61348333,9.99465833 6.80248333,9.810325 7.03815,9.80856942 C7.27323333,9.80740833 7.46923333,9.98940833 7.4774,10.225075 C7.48265,10.3819917 7.48206667,10.5389083 7.47798333,10.695825 M7.00023333,-0.000175 C3.1339,-0.000175 0.000233333333,3.134075 0.000233333333,6.999825 C0.000233333333,10.8661583 3.1339,13.999825 7.00023333,13.999825 C10.8659833,13.999825 14.0002333,10.8661583 14.0002333,6.999825 C14.0002333,3.134075 10.8659833,-0.000175 7.00023333,-0.000175" id="path-1"></path>
    </defs>
    <g id="页面-1" stroke="none" stroke-width="1" fill="none" fill-rule="evenodd">
        <g id="无限滚动方案" transform="translate(-310.000000, -339.000000)">
            <g id="help-solid备份" transform="translate(310.000000, 339.000000)">
                <mask id="mask-2" fill="white">
                    <use xlink:href="#path-1"></use>
                </mask>
                <use id="Fill-1" fill="#231815" xlink:href="#path-1"></use>
                <g id="black9" mask="url(#mask-2)" fill="#CCCCCC">
                    <rect id="Rectangle-Copy-9" x="0" y="0" width="14" height="14"></rect>
                </g>
            </g>
        </g>
    </g>
</svg>