<?xml version="1.0" encoding="UTF-8"?>
<svg width="12px" height="12px" viewBox="0 0 12 12" version="1.1" xmlns="http://www.w3.org/2000/svg" xmlns:xlink="http://www.w3.org/1999/xlink">
    <title>help-solid备份</title>
    <defs>
        <path d="M6.8452,6.74685 C6.7707,6.77585 6.6962,6.80635 6.6247,6.84235 C6.4887,6.91085 6.4152,7.02185 6.4107,7.17685 C6.4082,7.24135 6.4112,7.30735 6.3972,7.36935 C6.3562,7.55085 6.1827,7.67485 6.0067,7.65585 C5.8082,7.63435 5.6697,7.48585 5.6622,7.28985 C5.6417,6.76135 5.8622,6.37635 6.3422,6.14635 C6.4072,6.11485 6.4732,6.08485 6.5412,6.06035 C7.1922,5.82585 7.6002,5.18235 7.5277,4.50135 C7.4552,3.81685 6.9152,3.25935 6.2377,3.17085 C5.3507,3.05485 4.5652,3.72335 4.5357,4.61635 C4.5342,4.66535 4.5317,4.71585 4.5187,4.76235 C4.4692,4.93985 4.2907,5.05585 4.1142,5.02985 C3.9202,5.00085 3.7832,4.84735 3.78566634,4.64785 C3.7922,4.09585 3.9652,3.60035 4.3342,3.18935 C4.9407,2.51485 5.7032,2.25885 6.5817,2.48135 C7.4692,2.70535 8.0192,3.29735 8.2332,4.18935 C8.2697,4.34185 8.2767,4.50135 8.2967,4.65785 C8.2772,5.59485 7.7157,6.40785 6.8452,6.74685 M6.4097,9.16785 C6.4037,9.37485 6.2367,9.53185 6.0307,9.52985 C5.8282,9.52785 5.6687,9.37085 5.6627,9.16635 C5.6607,9.10135 5.6622,9.03685 5.6622,8.97185 C5.6622,8.90485 5.6607,8.83735 5.6627,8.77035 C5.6687,8.56685 5.8307,8.40885 6.0327,8.40734522 C6.2342,8.40635 6.4022,8.56235 6.4092,8.76435 C6.4137,8.89885 6.4132,9.03335 6.4097,9.16785 M6.0002,-0.00015 C2.6862,-0.00015 0.0002,2.68635 0.0002,5.99985 C0.0002,9.31385 2.6862,11.99985 6.0002,11.99985 C9.3137,11.99985 12.0002,9.31385 12.0002,5.99985 C12.0002,2.68635 9.3137,-0.00015 6.0002,-0.00015" id="path-1"></path>
    </defs>
    <g id="页面-1" stroke="none" stroke-width="1" fill="none" fill-rule="evenodd">
        <g id="A6-业务条件" transform="translate(-118.000000, -160.000000)">
            <g id="编组-20备份-46" transform="translate(46.000000, 150.000000)">
                <g id="编组-17" transform="translate(72.000000, 0.000000)">
                    <g id="help-solid备份" transform="translate(0.000000, 10.000000)">
                        <mask id="mask-2" fill="white">
                            <use xlink:href="#path-1"></use>
                        </mask>
                        <use id="Fill-1" fill="#231815" xlink:href="#path-1"></use>
                        <g id="black9" mask="url(#mask-2)" fill="#E65149">
                            <rect id="Rectangle-Copy-9" x="0" y="0" width="12" height="12"></rect>
                        </g>
                    </g>
                </g>
            </g>
        </g>
    </g>
</svg>