<?xml version="1.0" encoding="UTF-8"?>
<svg width="14px" height="14px" viewBox="0 0 14 14" version="1.1" xmlns="http://www.w3.org/2000/svg" xmlns:xlink="http://www.w3.org/1999/xlink">
    <title>search-empty</title>
    <defs>
        <path d="M9.27266667,12.400462 C8.55,12.7059298 7.782,12.8613316 6.99,12.8613316 C6.198,12.8613316 5.43,12.7059298 4.70733333,12.400462 C4.00933333,12.1049985 3.382,11.6814786 2.84266667,11.1425746 C2.304,10.6030036 1.88066667,9.97539378 1.58533333,9.27708619 C1.28,8.55410106 1.12466667,7.78576263 1.12466667,6.99341362 C1.12466667,6.20039765 1.28,5.43205921 1.58533333,4.70974105 C1.88066667,4.0107665 2.304,3.38315672 2.84266667,2.84425268 C3.382,2.30468168 4.00933333,1.88182875 4.70733333,1.58636528 C5.43,1.28023043 6.198,1.12549561 6.99,1.12549561 C7.782,1.12549561 8.55,1.28023043 9.27266667,1.58636528 C9.97066667,1.88182875 10.598,2.30468168 11.1373333,2.84425268 C11.6766667,3.38315672 12.0993333,4.0107665 12.3946667,4.70974105 C12.7,5.43205921 12.8553333,6.20039765 12.8553333,6.99341362 C12.8553333,7.78576263 12.7,8.55410106 12.3946667,9.27708619 C12.0993333,9.97539378 11.6766667,10.6030036 11.1373333,11.1425746 C10.598,11.6814786 9.97066667,12.1049985 9.27266667,12.400462 M13.8366667,13.0394101 L12.318,11.5200742 C13.3546667,10.3002035 13.98,8.72017422 13.98,6.99341362 C13.98,3.13104567 10.8506667,0.000333333333 6.99,0.000333333333 C3.12933333,0.000333333333 1.13686838e-13,3.13104567 1.13686838e-13,6.99341362 C1.13686838e-13,10.8557816 3.12933333,13.9864939 6.99,13.9864939 C8.72,13.9864939 10.3026667,13.3582172 11.5233333,12.3164249 L13.0413333,13.8357608 C13.2606667,14.0551908 13.6173333,14.0551908 13.8366667,13.8357608 L13.8366667,13.8357608 C14.0566667,13.6156639 14.0566667,13.259507 13.8366667,13.0394101" id="path-1"></path>
    </defs>
    <g id="页面-1" stroke="none" stroke-width="1" fill="none" fill-rule="evenodd">
        <g id="B2配置数据角色" transform="translate(-739.000000, -308.000000)">
            <g id="编组备份-2" transform="translate(719.000000, 247.000000)">
                <g id="编组-7" transform="translate(10.000000, 52.000000)">
                    <g id="search-empty" transform="translate(10.000000, 9.000000)">
                        <mask id="mask-2" fill="white">
                            <use xlink:href="#path-1"></use>
                        </mask>
                        <use id="Fill-1" fill="#231815" xlink:href="#path-1"></use>
                        <g id="black6" mask="url(#mask-2)" fill="#666666">
                            <g transform="translate(-1.000000, -1.000000)" id="Rectangle-Copy-9">
                                <rect x="0" y="0" width="16" height="16"></rect>
                            </g>
                        </g>
                    </g>
                </g>
            </g>
        </g>
    </g>
</svg>