<?xml version="1.0" encoding="UTF-8"?>
<svg width="14px" height="15px" viewBox="0 0 14 15" version="1.1" xmlns="http://www.w3.org/2000/svg" xmlns:xlink="http://www.w3.org/1999/xlink">
    <title> upload1-empty</title>
    <defs>
        <path d="M13.4216667,8.59696667 C13.7323333,8.59696667 13.9843333,8.8443 13.9843333,9.14963333 L13.9843333,9.14963333 L13.9843333,13.4503 C13.9843333,13.7556333 13.7323333,14.0029667 13.4216667,14.0029667 L13.4216667,14.0029667 L0.577666667,14.0029667 C0.267,14.0029667 0.0156666667,13.7556333 0.0156666667,13.4503 L0.0156666667,13.4503 L0.0156666667,9.14963333 C0.0156666667,8.8443 0.267,8.59696667 0.577666667,8.59696667 C0.888333333,8.59696667 1.14033333,8.8443 1.14033333,9.14963333 L1.14033333,9.14963333 L1.14033333,12.8983 L12.859,12.8983 L12.859,9.14963333 C12.859,8.8443 13.111,8.59696667 13.4216667,8.59696667 Z M7.00553333,-0.00246666667 L7.02586667,-0.000966666667 C7.1832,-0.0123 7.34386667,0.0417 7.46453333,0.162366667 L7.46453333,0.162366667 L12.7932,5.49103333 C13.0125333,5.71103333 13.0125333,6.06703333 12.7932,6.28636667 L12.7932,6.28636667 L12.7153792,6.35155185 C12.4963029,6.50365062 12.1928296,6.48192222 11.9978667,6.28636667 L11.9978667,6.28636667 L7.54786667,1.83636667 L7.54786667,11.7023667 C7.54786667,12.0130333 7.29586667,12.2650333 6.9852,12.2650333 C6.67453333,12.2650333 6.42253333,12.0130333 6.42253333,11.7023667 L6.42253333,11.7023667 L6.42253333,1.82103333 L1.9572,6.28636667 C1.7372,6.50636667 1.3812,6.50636667 1.1612,6.28636667 L1.1612,6.28636667 L1.09621235,6.20856786 C0.944574486,5.98960123 0.966237037,5.68658889 1.1612,5.49103333 L1.1612,5.49103333 L6.49053333,0.162366667 C6.61253333,0.0397 6.7772,-0.0143 6.93653333,-0.0003 C6.95253333,-0.00163333333 6.96853333,-0.00296666667 6.9852,-0.00296666667 L7.00553333,-0.00246666667 L7.00553333,-0.00246666667 Z" id="path-1"></path>
    </defs>
    <g id="页面-1" stroke="none" stroke-width="1" fill="none" fill-rule="evenodd">
        <g id="A-4-报错" transform="translate(-305.000000, -399.000000)">
            <g id="编组" transform="translate(289.000000, 390.000000)">
                <g id="-upload1-empty" transform="translate(16.000000, 9.000000)">
                    <mask id="mask-2" fill="white">
                        <use xlink:href="#path-1"></use>
                    </mask>
                    <use id="Combined-Shape" fill="#030000" xlink:href="#path-1"></use>
                    <g id="系统/色块/icon色/999" mask="url(#mask-2)" fill="#E1251B">
                        <g transform="translate(-1.000000, -1.000000)" id="Rectangle">
                            <rect x="0" y="0" width="16" height="16"></rect>
                        </g>
                    </g>
                </g>
            </g>
        </g>
    </g>
</svg>