<?xml version="1.0" encoding="UTF-8"?><svg width="18px" height="19px" viewBox="0 0 18 19" version="1.1" xmlns="http://www.w3.org/2000/svg" xmlns:xlink="http://www.w3.org/1999/xlink"><title>形状@4x</title><g id="页面-1" stroke="none" stroke-width="1" fill="none" fill-rule="evenodd"><g id="B4-填写助手多量展示" transform="translate(-46.000000, -197.000000)" fill="#3C6EF0" fill-rule="nonzero" stroke="#3C6EF0" stroke-width="0.3"><g id="编组-5" transform="translate(22.000000, 23.000000)"><g id="编组-25" transform="translate(12.000000, 164.000000)"><g id="紧急联系人" transform="translate(13.000000, 11.000000)"><path d="M12.7999988,17 C11.009516,17 9.56190834,15.5704497 9.56190834,13.7545407 C9.56190834,11.9386263 10.9714321,10.4704571 12.7619095,10.4704571 C14.5523923,10.4704571 16,11.9000014 16,13.7159104 L16,13.7545467 C16,15.5318181 14.5523798,17 12.7999988,17 L12.7999988,17 Z M12.7999988,11.6295476 C11.6571413,11.6295476 10.7047659,12.55682 10.7047659,13.7159104 C10.7047659,14.8750009 11.619052,15.8409036 12.7619095,15.8409036 C13.9047671,15.8409036 14.8571424,14.9136312 14.8571424,13.7545407 C14.8571424,12.5954503 13.9428564,11.6295476 12.7999988,11.6295476 Z M12.838094,13.9863588 C12.5333314,13.9863588 12.2666652,13.715905 12.2666652,13.4068136 L12.2666652,12.7499951 C12.2666652,12.4409037 12.5333314,12.1704498 12.838094,12.1704498 C13.1428566,12.1704498 13.4095228,12.4409037 13.4095228,12.7499951 L13.4095228,13.4068136 C13.447618,13.715905 13.1809513,13.9863588 12.838094,13.9863588 C12.8761892,13.9863588 12.8761892,13.9863588 12.838094,13.9863588 Z M12.2666652,14.9136312 L12.2666652,14.9136313 C12.2666652,15.2337051 12.5225028,15.4931765 12.838094,15.4931765 C13.1536852,15.4931765 13.4095228,15.2337051 13.4095228,14.9136313 L13.4095228,14.9136313 C13.4095228,14.5935575 13.1536852,14.3340861 12.838094,14.3340861 C12.5225028,14.3340861 12.2666652,14.5935575 12.2666652,14.9136313 L12.2666652,14.9136312 Z M0.571428782,16.2272724 C0.26666617,16.2272724 0,15.9568126 0,15.6477212 C0,11.4363652 3.35237623,8.07500291 7.50477062,8.07500291 C8.99048545,8.07500291 10.438111,8.5386391 11.6952543,9.38863816 C11.9619205,9.5431835 12.1143027,9.89091009 11.9619205,10.1613657 C11.8095395,10.4318196 11.4666828,10.5863662 11.2000148,10.4318196 C11.1619196,10.3931833 11.1238243,10.3931833 11.0857291,10.3545468 C8.19049587,8.34546272 4.2285837,9.11818306 2.28572584,12.0545468 C1.5238202,13.0977282 1.14286828,14.3340974 1.14286828,15.6477272 C1.14286828,15.9568186 0.876202108,16.2272724 0.571439496,16.2272724 L0.571428782,16.2272724 Z M7.46666346,9.23409337 C4.95237682,9.23409337 2.93332251,7.18636085 2.93332251,4.63636184 C2.93332251,2.08636283 4.95237682,0 7.46666346,0 C9.9809501,0 12.0000044,2.04773252 12.0000044,4.59773153 C12.0380996,7.14773054 9.9809501,9.19546306 7.46666346,9.23409337 Z M7.46666346,1.15909046 C5.60000206,1.15909046 4.07618007,2.7045438 4.07618007,4.59773153 C4.07618007,6.49090658 5.59998956,8.0363726 7.46666346,8.0363726 C9.33332487,8.0363726 10.8571469,6.49091926 10.8571469,4.59773153 C10.895242,2.70455648 9.37143202,1.15909046 7.46666346,1.15909046 Z" id="形状"/></g></g></g></g></g></svg>