<?xml version="1.0" encoding="UTF-8"?><svg width="24px" height="21px" viewBox="0 0 24 21" version="1.1" xmlns="http://www.w3.org/2000/svg" xmlns:xlink="http://www.w3.org/1999/xlink"><title>租户管理@4x</title><defs><linearGradient x1="50%" y1="0%" x2="50%" y2="100%" id="linearGradient-1"><stop stop-color="#87B8FF" offset="0%"/><stop stop-color="#3B6DEE" offset="100%"/></linearGradient></defs><g id="页面-1" stroke="none" stroke-width="1" fill="none" fill-rule="evenodd"><g id="A5-其他切图补充" transform="translate(-1297.000000, -66.000000)" fill="url(#linearGradient-1)" fill-rule="nonzero"><g id="租户管理" transform="translate(1297.000000, 66.000000)"><path d="M9.74388589,0.341341354 C6.29988194,0.341341354 3.50903436,3.1557187 3.50903436,6.6287592 C3.50903436,10.1017997 6.29988194,12.9161771 9.74388589,12.9161771 C13.1878898,12.9161771 15.9787374,10.1018278 15.9787374,6.6287592 C15.9787374,3.15569063 13.1879177,0.341341354 9.74388589,0.341341354 Z M9.74388589,11.119772 C7.30934337,11.119772 5.29042051,9.08385553 5.29042051,6.6287592 C5.29042051,4.17366288 7.30934337,2.13774645 9.74388589,2.13774645 C12.1784284,2.13774645 14.1973513,4.17369095 14.1973513,6.6287592 C14.1973513,9.08382746 12.2378265,11.119772 9.74388589,11.119772 L9.74388589,11.119772 Z M9.74388589,11.119772 C4.6966344,11.119772 0.480677898,15.0119924 0.00566014636,19.9820558 C-0.0537379482,20.5209774 0.361937377,21 0.896353223,21 C1.37137097,21 1.7276482,20.640719 1.7870463,20.1616963 C2.20269379,16.0898354 5.58732748,12.9760759 9.68451563,12.9760759 C13.7817038,12.9760759 17.1663375,16.1497062 17.581985,20.1616963 C17.6413831,20.640719 17.9976603,21 18.472678,21 C19.0070939,21 19.4227692,20.5209774 19.3633711,19.9820558 C19.0070939,15.0119924 14.8505355,11.119772 9.74388589,11.119772 L9.74388589,11.119772 Z M18.5914464,11.119772 C20.1946939,9.98205808 21.2635256,8.06588328 21.2635256,5.97009605 C21.2635256,3.2754884 19.5415097,0.940161766 17.1663375,0.0419592165 C16.5725514,-0.137681294 15.9787374,0.28147054 15.9787374,0.880262884 C15.9787374,1.2395439 16.2162741,1.59882492 16.5725514,1.71859462 C18.2945394,2.37728585 19.4821395,3.99405044 19.4821395,5.91019716 C19.4821395,7.76650115 18.3539375,9.38326573 16.75069,10.0419289 C16.2756444,10.2215694 15.9787374,10.7006201 15.9787374,11.2395416 C15.9787374,11.838334 16.3944128,12.3772555 16.9881989,12.4970252 C20.1946939,13.2754581 21.7979415,16.0299646 22.1542187,19.3832354 C22.213589,19.8622861 22.5104959,20.2215671 22.9855415,20.281438 C23.5793276,20.3413368 24.0543732,19.8622861 23.9949751,19.2634938 C23.6386979,15.5509139 21.9760801,12.4371544 18.5914464,11.119772 L18.5914464,11.119772 Z" id="形状"/></g></g></g></svg>