<?xml version="1.0" encoding="UTF-8"?><svg width="35px" height="28px" viewBox="0 0 35 28" version="1.1" xmlns="http://www.w3.org/2000/svg" xmlns:xlink="http://www.w3.org/1999/xlink"><title>账号权限管理@4x</title><defs><linearGradient x1="50%" y1="0%" x2="50%" y2="100%" id="linearGradient-1"><stop stop-color="#87B8FF" offset="0%"/><stop stop-color="#3B6DEE" offset="100%"/></linearGradient></defs><g id="页面-1" stroke="none" stroke-width="1" fill="none" fill-rule="evenodd"><g id="A5-其他切图补充" transform="translate(-1228.000000, -63.000000)" fill="url(#linearGradient-1)" fill-rule="nonzero"><g id="账号权限管理" transform="translate(1228.000000, 63.000000)"><path d="M29.1666668,10.1115 L21.0000002,10.1115 L21.0000001,10.1115 C20.3556683,10.1115 19.8333334,10.6338349 19.8333334,11.2781667 C19.8333334,11.9224984 20.3556683,12.4448333 21.0000001,12.4448333 L29.1666668,12.4448333 L29.1666667,12.4448333 C29.8109985,12.4448333 30.3333334,11.9224984 30.3333334,11.2781667 C30.3333334,10.6338349 29.8109985,10.1115 29.1666667,10.1115 L29.1666668,10.1115 Z M29.1666668,15.9448333 L21.0000002,15.9448333 L21.0000001,15.9448333 C20.3556683,15.9448333 19.8333334,16.4671682 19.8333334,17.1115 C19.8333334,17.7558318 20.3556683,18.2781667 21.0000001,18.2781667 L29.1666668,18.2781667 L29.1666667,18.2781667 C29.8109985,18.2781667 30.3333334,17.7558318 30.3333334,17.1115 C30.3333334,16.4671682 29.8109985,15.9448333 29.1666667,15.9448333 L29.1666668,15.9448333 Z M13.5753335,18.4975 L13.5753335,17.7368333 C14.6988335,17.0088333 15.7826668,15.7301667 16.3741668,14.1621667 C16.7930002,13.9801667 17.0940002,13.4656667 17.3366668,12.5486667 C17.5245002,11.8381667 17.2235002,11.3691667 16.8163335,11.109 C16.6156668,7.7595 14.6615002,5.83333333 11.6666668,5.83333333 C8.62983349,5.83333333 6.58233349,7.8155 6.42483349,11.2536667 C6.05616682,11.5581667 5.81933349,12.047 6.00366682,12.7435 C6.26616682,13.7363333 6.59050015,14.3068333 7.03733349,14.525 C7.66850015,15.9343333 8.70216682,17.0776667 9.75800015,17.7473333 L9.75800015,18.4975 C6.81916682,18.8136667 4.66666682,19.8426667 4.66666682,21.063 C4.66666682,22.5353333 18.6666668,22.5353333 18.6666668,21.063 C18.6666668,19.8426667 16.5141668,18.8136667 13.5753335,18.4975 L13.5753335,18.4975 Z M31.5,0 L3.5,0 L3.5,0 C1.56700469,0 0,1.56700469 0,3.5 C0,3.5 0,3.5 0,3.5 L0,24.5 L0,24.5 C0,26.4329958 1.56700469,28 3.5,28 L31.5,28 L31.5,28 C33.4329952,28 35,26.4329958 35,24.5 L35,3.5 L35,3.5 C35,1.56700522 33.4329952,0 31.5,0 L31.5,0 Z M32.6666668,24.5 L32.6666668,24.5 C32.6666668,25.1443318 32.1443319,25.6666667 31.5000002,25.6666667 L3.50000015,25.6666667 L3.5000001,25.6666667 C2.85566833,25.6666667 2.33333344,25.1443318 2.33333344,24.5 C2.33333344,24.5 2.33333344,24.5 2.33333344,24.5 L2.33333344,3.5 L2.33333344,3.50000018 C2.33333344,2.85566841 2.85566833,2.33333351 3.5000001,2.33333351 L31.5000001,2.33333351 L31.5000001,2.33333351 C32.1443318,2.33333351 32.6666668,2.85566841 32.6666668,3.50000018 L32.6666668,24.5000002 L32.6666668,24.5 Z" id="形状"/></g></g></g></svg>