<?xml version="1.0" encoding="UTF-8"?>
<svg width="20px" height="20px" viewBox="0 0 20 20" version="1.1" xmlns="http://www.w3.org/2000/svg" xmlns:xlink="http://www.w3.org/1999/xlink">
    <title>icon/warning</title>
    <defs>
        <path d="M10.8017632,11.7888265 C10.8017632,12.2316222 10.4427961,12.5905892 10.0000003,12.5905892 L10.0000003,12.5905892 C9.55720449,12.5905892 9.19823745,12.2316222 9.19823745,11.7888265 L9.19823745,5.80589554 C9.19823745,5.36307758 9.55720449,5.0041329 10.0000003,5.0041329 L10.0000003,5.0041329 C10.4427961,5.0041329 10.8017632,5.36307758 10.8017632,5.80589554 L10.8017632,11.7888265 Z M10.8017632,14.1941144 C10.8017632,14.6369101 10.4427961,14.9958771 10.0000003,14.9958771 C9.55720449,14.9958771 9.19823745,14.6369101 9.19823745,14.1941144 L9.19823745,14.1941144 C9.19823745,13.7513188 9.55720449,13.3923518 10.0000003,13.3923518 C10.4427961,13.3923518 10.8017632,13.7513188 10.8017632,14.1941144 Z M17.6665903,3.57980158 C14.1208164,-0.654329192 7.81394934,-1.21235599 3.57981744,2.33341701 C-0.654314461,5.87919001 -1.21234141,12.1860554 2.33341027,16.4201861 C5.87918422,20.6543169 12.1860513,21.2123437 16.4201832,17.6665707 C20.6543151,14.1207977 21.2123643,7.81395461 17.6665903,3.57980158 L17.6665903,3.57980158 Z" id="path-1"></path>
    </defs>
    <g id="页面-1" stroke="none" stroke-width="1" fill="none" fill-rule="evenodd">
        <g id="A-5信息提示" transform="translate(-497.000000, -376.000000)">
            <g id="编组-2备份-3" transform="translate(481.000000, 345.000000)">
                <g id="icon/warning" transform="translate(16.000000, 31.000000)">
                    <mask id="mask-2" fill="white">
                        <use xlink:href="#path-1"></use>
                    </mask>
                    <use id="Fill-1" fill="#FFFFFF" xlink:href="#path-1"></use>
                    <g id="编组" mask="url(#mask-2)" fill="#F4821F">
                        <g id="色值-black1">
                            <rect id="色值-blue1" x="0" y="0" width="20" height="20"></rect>
                        </g>
                    </g>
                </g>
            </g>
        </g>
    </g>
</svg>