<?xml version="1.0" encoding="UTF-8"?><svg width="18px" height="16px" viewBox="0 0 18 16" version="1.1" xmlns="http://www.w3.org/2000/svg" xmlns:xlink="http://www.w3.org/1999/xlink"><title>运单信息@4x</title><defs><linearGradient x1="11.3070383%" y1="2.02884258%" x2="96.4862944%" y2="79.2656021%" id="linearGradient-1"><stop stop-color="#3C6EF0" offset="0%"/><stop stop-color="#5886FF" offset="100%"/></linearGradient></defs><g id="页面-1" stroke="none" stroke-width="1" fill="none" fill-rule="evenodd"><g id="F3-全部关闭二次确认" transform="translate(-48.000000, -126.000000)"><g id="运单信息" transform="translate(48.000000, 126.000000)"><rect id="矩形" stroke="#979797" fill="#D8D8D8" opacity="0" x="0.5" y="0.5" width="17" height="15"/><path d="M13.55,1 C14.7650264,1 15.75,1.98497355 15.75,3.2 L15.75,12.8 C15.75,14.0150264 14.7650264,15 13.55,15 L13.5280556,15.000733 C13.5307621,14.9726344 13.5321429,14.944205 13.5321429,14.915493 C13.5321429,14.3632082 13.0212678,13.915493 12.3910714,13.915493 C11.7608751,13.915493 11.25,14.3632082 11.25,14.915493 L11.255,15 L10.1530556,15.000733 C10.1557621,14.9726344 10.1571429,14.944205 10.1571429,14.915493 C10.1571429,14.3632082 9.64626778,13.915493 9.01607143,13.915493 C8.38587508,13.915493 7.875,14.3632082 7.875,14.915493 L7.88,15 L6.74434155,15.0009114 C6.74808365,14.9681889 6.75,14.9349948 6.75,14.9014085 C6.75,14.3569024 6.24632034,13.915493 5.625,13.915493 C5.00367966,13.915493 4.5,14.3569024 4.5,14.9014085 L4.506,15 L4.45,15 C3.23497355,15 2.25,14.0150264 2.25,12.8 L2.25,3.2 C2.25,1.98497355 3.23497355,1 4.45,1 L13.55,1 Z" id="形状结合" fill="url(#linearGradient-1)"/><rect id="矩形" fill="#FFFFFF" x="4.5" y="5" width="8.6625" height="1.65" rx="0.825"/><rect id="矩形备份-8" fill="#FFFFFF" x="5.625" y="8" width="6.1875" height="1.65" rx="0.825"/></g></g></g></svg>